<svg width="25" height="23" viewBox="0 0 25 23" fill="none" xmlns="http://www.w3.org/2000/svg">
<g clip-path="url(#clip0_10_171)">
<path d="M0.347241 22.2104C0.436177 22.2336 0.530662 22.2208 0.610217 22.1748C0.689772 22.1288 0.747986 22.0532 0.772241 21.9646C1.48752 19.2958 4.39446 18.6042 6.13196 18.1903C6.56738 18.0868 6.91113 18.0049 7.13474 17.9083C9.11391 17.0493 9.75905 15.6674 9.9521 14.659C9.96358 14.599 9.95903 14.5371 9.93891 14.4794C9.9188 14.4217 9.88382 14.3704 9.83752 14.3306C8.80696 13.441 7.93752 12.1056 7.38891 10.5695C7.37329 10.5255 7.34896 10.4851 7.31738 10.4507C6.59169 9.66181 6.17502 8.82778 6.17502 8.1632C6.17502 7.77501 6.32155 7.51459 6.65141 7.31806C6.70082 7.28853 6.74211 7.24717 6.77157 7.19771C6.80102 7.14825 6.81772 7.09224 6.82016 7.03473C6.97363 3.49723 9.49308 0.712507 12.5834 0.694452L12.6577 0.699313C15.7632 0.742368 18.2667 3.58681 18.3563 7.17431C18.3576 7.22333 18.3693 7.27151 18.3906 7.31568C18.4119 7.35985 18.4424 7.399 18.4799 7.43056C18.6972 7.61459 18.7986 7.84792 18.7986 8.16459C18.7986 8.72084 18.5021 9.40487 17.9646 10.0896C17.9387 10.1224 17.919 10.1595 17.9063 10.1993C17.3507 11.9604 16.3535 13.5153 15.1715 14.4667C15.1225 14.5061 15.085 14.5582 15.0633 14.6173C15.0415 14.6763 15.0362 14.7402 15.0479 14.8021C15.241 15.8097 15.8861 17.191 17.8653 18.0514C18.0993 18.1528 18.4625 18.232 18.9229 18.3313C20.6431 18.7035 23.5215 19.3278 24.2278 21.9646C24.2397 22.0086 24.2601 22.0499 24.2879 22.0861C24.3157 22.1222 24.3503 22.1526 24.3899 22.1753C24.4294 22.1981 24.473 22.2128 24.5183 22.2187C24.5635 22.2246 24.6094 22.2216 24.6535 22.2097C24.6975 22.1979 24.7388 22.1775 24.775 22.1496C24.8111 22.1218 24.8415 22.0872 24.8642 22.0477C24.887 22.0081 24.9017 21.9645 24.9076 21.9193C24.9135 21.874 24.9105 21.8281 24.8986 21.784C24.0827 18.7375 20.8215 18.0313 19.0702 17.6521C18.6639 17.5639 18.3132 17.4882 18.1424 17.4132C16.8507 16.8521 16.0549 15.9972 15.7736 14.8681C16.9729 13.8382 17.9764 12.2493 18.55 10.4674C19.159 9.6757 19.4938 8.86042 19.4938 8.1639C19.4938 7.69931 19.3438 7.31181 19.0465 7.00903C18.8813 3.11737 16.1042 0.0527849 12.6577 0.00347934L12.5542 0.00209045C9.17016 0.020146 6.38127 3.00417 6.13752 6.82848C5.7028 7.14792 5.48196 7.59584 5.48196 8.16459C5.48196 8.98612 5.94655 9.96876 6.75974 10.8701C7.32155 12.4139 8.19238 13.7701 9.22919 14.7194C8.94932 15.8528 8.1528 16.7104 6.85835 17.2722C6.69099 17.3451 6.35766 17.425 5.97155 17.5167C4.20696 17.9361 0.92363 18.7174 0.101408 21.7854C0.0776621 21.8744 0.0902206 21.9691 0.136321 22.0488C0.182422 22.1285 0.25829 22.1867 0.347241 22.2104Z" fill="black"/>
</g>
<defs>
<clipPath id="clip0_10_171">
<rect width="25" height="22.2222" fill="white"/>
</clipPath>
</defs>
</svg>
